<svg id="Layer_1" data-name="Layer 1" xmlns="http://www.w3.org/2000/svg" viewBox="0 0 490 319.57"><title>keyboard</title><path d="M231.23,178.3,245,164.53l13.77,13.77a10.65,10.65,0,0,0,15.06-15.06l-21.3-21.31a10.65,10.65,0,0,0-15.06,0l-21.31,21.31a10.65,10.65,0,0,0,15.07,15.06Z" transform="translate(0 -85.55)"/><path d="M308.91,85.55H181.09A10.64,10.64,0,0,0,170.44,96.2V224a10.64,10.64,0,0,0,10.65,10.65H308.91A10.65,10.65,0,0,0,319.57,224V96.2a10.65,10.65,0,0,0-10.66-10.65ZM298.26,213.38H191.74V106.86H298.26Z" transform="translate(0 -85.55)"/><path d="M237.47,348.73a10.63,10.63,0,0,0,15.06,0l21.3-21.3a10.65,10.65,0,0,0-15.06-15.06L245,326.14l-13.77-13.77a10.65,10.65,0,0,0-15.07,15.06Z" transform="translate(0 -85.55)"/><path d="M308.91,256H181.09a10.62,10.62,0,0,0-10.65,10.65V394.46a10.62,10.62,0,0,0,10.65,10.65H308.91a10.64,10.64,0,0,0,10.66-10.65V266.64A10.64,10.64,0,0,0,308.91,256ZM298.26,383.81H191.74V277.29H298.26Z" transform="translate(0 -85.55)"/><path d="M77.69,359.39a10.65,10.65,0,0,0,15.06-15.07L79,330.55l13.78-13.77a10.65,10.65,0,0,0-15.06-15.06L56.38,323a10.65,10.65,0,0,0,0,15.06Z" transform="translate(0 -85.55)"/><path d="M138.48,256H10.65A10.64,10.64,0,0,0,0,266.64V394.46a10.64,10.64,0,0,0,10.65,10.65H138.48a10.64,10.64,0,0,0,10.65-10.65V266.64A10.64,10.64,0,0,0,138.48,256ZM127.83,383.81H21.3V277.29H127.83Z" transform="translate(0 -85.55)"/><path d="M397.25,359.39a10.65,10.65,0,0,0,15.06,0l21.31-21.31a10.65,10.65,0,0,0,0-15.06l-21.31-21.3a10.65,10.65,0,0,0-15.06,15.06L411,330.55l-13.77,13.77A10.66,10.66,0,0,0,397.25,359.39Z" transform="translate(0 -85.55)"/><path d="M479.35,256H351.52a10.64,10.64,0,0,0-10.65,10.65V394.46a10.64,10.64,0,0,0,10.65,10.65H479.35A10.64,10.64,0,0,0,490,394.46V266.64A10.64,10.64,0,0,0,479.35,256ZM468.69,383.81H362.18V277.29H468.69Z" transform="translate(0 -85.55)"/></svg>